<?xml version="1.0" encoding="UTF-8"?>
<svg version="1.1" xmlns="http://www.w3.org/2000/svg" width="672" height="298">
<path d="M0 0 C0.75990234 -0.03738281 1.51980469 -0.07476562 2.30273438 -0.11328125 C6.49856989 -0.17889814 8.19371764 0.00173181 11.6484375 2.61328125 C13.58278389 5.23317186 14.45602904 6.77807268 15 9.9375 C15.14050781 10.68128906 15.28101562 11.42507812 15.42578125 12.19140625 C15.6875 14.375 15.6875 14.375 15.6875 18.375 C17.24909059 18.85712214 18.81181928 19.33555873 20.375 19.8125 C21.24511719 20.07933594 22.11523438 20.34617187 23.01171875 20.62109375 C23.89472656 20.86988281 24.77773437 21.11867188 25.6875 21.375 C26.9559375 21.76171875 26.9559375 21.76171875 28.25 22.15625 C31.50518158 22.44838168 32.49294308 21.45872871 35 19.4375 C38.54231973 16.95904527 41.16113432 15.23920095 45.56640625 15.59375 C51.11275346 17.63660348 55.72698763 22.35882712 58.90625 27.25 C59.90318071 29.81353612 59.85928347 31.86062011 58.99609375 34.4453125 C57.57759738 37.46031262 56.00184649 39.9956163 53.875 42.5625 C52.4255752 44.33883678 52.4255752 44.33883678 53.015625 46.65625 C53.68445625 49.36268344 54.43266423 52.02227467 55.25 54.6875 C55.51941406 55.57050781 55.78882813 56.45351562 56.06640625 57.36328125 C56.37384766 58.35908203 56.37384766 58.35908203 56.6875 59.375 C57.49574219 59.48457031 58.30398437 59.59414062 59.13671875 59.70703125 C60.73966797 59.94486328 60.73966797 59.94486328 62.375 60.1875 C63.43074219 60.33832031 64.48648438 60.48914063 65.57421875 60.64453125 C68.89455195 61.42358057 70.9992737 62.2799725 73.6875 64.375 C76.47359613 69.43374252 76.19898195 74.75694831 75.6875 80.375 C74.37293406 84.70533486 73.47843846 85.91625569 69.5625 88.1875 C65.39208122 89.7056396 61.09150544 90.0853942 56.6875 90.375 C56.20537786 91.93659059 55.72694127 93.49931928 55.25 95.0625 C54.98316406 95.93261719 54.71632812 96.80273438 54.44140625 97.69921875 C54.19261719 98.58222656 53.94382813 99.46523437 53.6875 100.375 C53.43097656 101.21675781 53.17445313 102.05851562 52.91015625 102.92578125 C52.61299149 106.19459359 53.59618855 107.30157856 55.5625 109.875 C57.96714491 113.05136816 59.28304134 115.36955452 59.6875 119.375 C57.78749027 124.83752796 54.17279445 128.83495356 49.6875 132.375 C45.37715077 134.37623357 43.61315891 134.66227345 39.0625 133.25 C35.6875 131.375 35.6875 131.375 33.0625 129.125 C30.86201634 127.08246604 30.86201634 127.08246604 28.37109375 127.66796875 C25.68739269 128.37502827 23.02835527 129.12380438 20.375 129.9375 C19.49199219 130.20691406 18.60898438 130.47632813 17.69921875 130.75390625 C17.03535156 130.95886719 16.37148437 131.16382813 15.6875 131.375 C15.65011719 131.94347656 15.61273438 132.51195312 15.57421875 133.09765625 C15.11824943 138.45306067 14.21566796 142.61037576 11.6875 147.375 C7.88407756 149.91061496 4.72490897 149.77895973 0.3125 149.8125 C-0.82058594 149.86180664 -0.82058594 149.86180664 -1.9765625 149.91210938 C-6.05471491 149.95132238 -7.85510598 149.70006999 -11.26953125 147.2734375 C-13.63952207 143.91104135 -14.17321369 141.6285768 -14.625 137.5625 C-14.76550781 136.40105469 -14.90601563 135.23960937 -15.05078125 134.04296875 C-15.13714844 133.16253906 -15.22351563 132.28210938 -15.3125 131.375 C-16.87409059 130.89287786 -18.43681928 130.41444127 -20 129.9375 C-20.87011719 129.67066406 -21.74023438 129.40382812 -22.63671875 129.12890625 C-23.51972656 128.88011719 -24.40273437 128.63132813 -25.3125 128.375 C-26.15425781 128.11847656 -26.99601562 127.86195313 -27.86328125 127.59765625 C-31.13209359 127.30049149 -32.23907856 128.28368855 -34.8125 130.25 C-37.98886816 132.65464491 -40.30705452 133.97054134 -44.3125 134.375 C-49.98400384 132.40230301 -55.58675526 127.82648949 -58.3125 122.375 C-58.99307173 116.83320166 -58.54186078 114.24428876 -55.25 109.6875 C-54.68152344 108.98238281 -54.11304687 108.27726562 -53.52734375 107.55078125 C-52.07653138 105.43253379 -52.07653138 105.43253379 -52.53125 102.9375 C-52.7890625 102.091875 -53.046875 101.24625 -53.3125 100.375 C-53.56128906 99.49199219 -53.81007813 98.60898438 -54.06640625 97.69921875 C-54.33324219 96.82910156 -54.60007812 95.95898438 -54.875 95.0625 C-55.14441406 94.17949219 -55.41382812 93.29648438 -55.69140625 92.38671875 C-55.89636719 91.72285156 -56.10132812 91.05898437 -56.3125 90.375 C-57.29089844 90.31892578 -57.29089844 90.31892578 -58.2890625 90.26171875 C-63.58424273 89.86340873 -67.75262665 89.33891768 -72.3125 86.375 C-74.84811496 82.57157756 -74.71645973 79.41240897 -74.75 75 C-74.78287109 74.24460937 -74.81574219 73.48921875 -74.84960938 72.7109375 C-74.8889437 68.62016741 -74.63840557 66.83138805 -72.1953125 63.41015625 C-68.89409691 61.07962329 -66.73216722 60.65354738 -62.75 60.1875 C-57.96636581 59.32452136 -57.96636581 59.32452136 -54.54296875 56.14453125 C-52.62872891 51.56523665 -51.85534038 48.20622442 -53.3125 43.375 C-54.47540458 41.36239596 -54.47540458 41.36239596 -55.875 39.5 C-58.38445279 35.57024108 -59.32583506 33.10389693 -58.3125 28.375 C-56.25674698 25.40868246 -53.85303381 22.92660368 -51.3125 20.375 C-50.673125 19.55 -50.03375 18.725 -49.375 17.875 C-46.81155434 16.01067588 -44.67385225 15.70898343 -41.52734375 15.83203125 C-37.93536062 16.7126056 -35.35772582 18.95255845 -32.3984375 21.09375 C-30.294272 22.62825111 -30.294272 22.62825111 -27.3125 22.4375 C-25.8275 21.9115625 -25.8275 21.9115625 -24.3125 21.375 C-23.53132813 21.12492187 -22.75015625 20.87484375 -21.9453125 20.6171875 C-19.72098733 19.90346322 -17.51493304 19.15319301 -15.3125 18.375 C-15.20292969 17.56675781 -15.09335938 16.75851563 -14.98046875 15.92578125 C-14.82191406 14.85714844 -14.66335937 13.78851563 -14.5 12.6875 C-14.34917969 11.63175781 -14.19835937 10.57601562 -14.04296875 9.48828125 C-13.2811268 6.24128642 -12.24558756 4.0774272 -10.3125 1.375 C-7.06911813 -0.24669093 -3.56056679 0.06544066 0 0 Z M-30.625 47.5625 C-39.3651125 58.0010959 -41.22313307 69.18382951 -40.3125 82.375 C-38.1100839 93.70550212 -31.72732409 102.76846035 -22.3125 109.375 C-11.66853099 115.64955761 -0.11381317 117.22348582 11.9609375 114.6875 C22.43488187 111.16684643 31.64568365 103.6432807 37.04296875 93.9375 C41.93557926 83.19848487 42.63329783 70.6470195 38.75 59.4375 C34.10483386 48.96951996 25.8057838 41.00613714 15.390625 36.34765625 C-0.94698594 30.55474518 -18.7851162 35.14506089 -30.625 47.5625 Z " fill="#191919" transform="translate(106.3125,59.625)"/>
<path d="M0 0 C5.94 0 11.88 0 18 0 C20.22168718 6.37147137 21.98542998 12.70843014 23.48046875 19.28515625 C23.80704216 20.69769936 23.80704216 20.69769936 24.14021301 22.13877869 C24.82672978 25.11242829 25.50721294 28.08741974 26.1875 31.0625 C26.65519887 33.09319115 27.12329408 35.12379105 27.59179688 37.15429688 C28.73244674 42.10182217 29.86769194 47.0505592 31 52 C33.22115255 45.64083463 35.05499416 39.24507317 36.69921875 32.71484375 C37.05908623 31.30230064 37.05908623 31.30230064 37.42622375 29.86122131 C38.18309252 26.88742763 38.93537132 23.91249566 39.6875 20.9375 C40.20347161 18.90682366 40.71974479 16.87622393 41.23632812 14.84570312 C42.49437171 9.89801367 43.7483035 4.94929881 45 0 C50.61 0 56.22 0 62 0 C65.37466284 7.87421329 65.37466284 7.87421329 66.33447266 11.80200195 C66.55124664 12.67593094 66.76802063 13.54985992 66.99136353 14.45027161 C67.32434952 15.83033638 67.32434952 15.83033638 67.6640625 17.23828125 C68.02037247 18.68124825 68.02037247 18.68124825 68.38388062 20.15336609 C69.13655638 23.20505798 69.88122244 26.25862835 70.625 29.3125 C71.37717841 32.38389517 72.13105854 35.45485474 72.88754272 38.52519226 C73.35666609 40.43092948 73.82307937 42.33733626 74.28652954 44.24446106 C74.49699921 45.10262924 74.70746887 45.96079742 74.92431641 46.8449707 C75.108461 47.60107132 75.29260559 48.35717194 75.48233032 49.13618469 C75.95555535 51.07072581 75.95555535 51.07072581 77 53 C77.22217445 52.07038704 77.22217445 52.07038704 77.44883728 51.12199402 C78.98830305 44.68177691 80.52962012 38.2420049 82.07202148 31.80249023 C82.64769391 29.39798202 83.22289143 26.99336005 83.79760742 24.58862305 C84.62294193 21.13560575 85.44997378 17.68299882 86.27734375 14.23046875 C86.66332985 12.61316109 86.66332985 12.61316109 87.05711365 10.96318054 C87.29728714 9.96236954 87.53746063 8.96155853 87.78491211 7.93041992 C87.99587021 7.04883713 88.20682831 6.16725433 88.42417908 5.25895691 C88.87620008 3.48566955 89.42130569 1.73608293 90 0 C95.94 0 101.88 0 108 0 C107.31084054 5.51327567 106.49484204 10.49714435 105.05053711 15.79296875 C104.85531967 16.52565475 104.66010223 17.25834076 104.45896912 18.01322937 C103.82010756 20.4060275 103.17380062 22.79674383 102.52734375 25.1875 C102.07990455 26.85746052 101.63293606 28.52754722 101.18641663 30.19775391 C100.01566404 34.57192724 98.8385639 38.94436745 97.66009521 43.31646729 C96.45637779 47.78676408 95.25872452 52.25868459 94.06054688 56.73046875 C91.71293413 65.4885738 89.35804807 74.2446988 87 83 C80.4 83 73.8 83 67 83 C62.71 65.84 58.42 48.68 54 31 C49.71 48.16 45.42 65.32 41 83 C34.4 83 27.8 83 21 83 C17.50550871 70.11939033 14.0148024 57.23777964 10.53205872 44.35398865 C9.01463609 38.74261556 7.49253244 33.13258715 5.9604187 27.52520752 C5.3796269 25.39711228 4.80149135 23.26831824 4.22460938 21.13916016 C3.54978352 18.64923067 2.87033813 16.16054705 2.18554688 13.67333984 C1.89099609 12.58102051 1.59644531 11.48870117 1.29296875 10.36328125 C1.0405542 9.43813721 0.78813965 8.51299316 0.52807617 7.55981445 C0 5 0 5 0 0 Z " fill="#1D1D1D" transform="translate(211,83)"/>
<path d="M0 0 C8.79836437 5.29380579 12.78754723 12.2481738 15.4375 22 C15.4375 25.96 15.4375 29.92 15.4375 34 C1.5775 34.33 -12.2825 34.66 -26.5625 35 C-25.13472367 40.02234339 -25.13472367 40.02234339 -23.5625 45 C-17.78488773 47.61368174 -12.7956849 47.74439497 -6.8125 45.75 C-3.51693027 44.33967015 -3.51693027 44.33967015 -2.33984375 41.90625 C-0.5625 40 -0.5625 40 3.01171875 39.609375 C4.38335748 39.6358801 5.75471938 39.6834691 7.125 39.75 C7.82689453 39.76804688 8.52878906 39.78609375 9.25195312 39.8046875 C10.98105436 39.85173787 12.70945205 39.92348127 14.4375 40 C12.02077222 48.40362162 9.19063858 53.43405686 1.5 57.9296875 C-7.2608249 62.47602466 -17.57916204 62.06001216 -26.8515625 59.23046875 C-34.44225185 55.78512704 -39.9509549 49.86715001 -42.94140625 42.140625 C-45.949518 31.77304489 -45.29427641 21.75596596 -40.5625 12 C-31.81202449 -0.9708376 -14.62118001 -6.72393772 0 0 Z M-25.5625 16 C-26.5525 19.465 -26.5525 19.465 -27.5625 23 C-18.9825 23 -10.4025 23 -1.5625 23 C-2.51215366 17.30207802 -2.85967507 15.92723856 -6.5625 12 C-13.38381837 8.58934082 -20.89886919 10.37972698 -25.5625 16 Z " fill="#1F1F1F" transform="translate(526.5625,107)"/>
<path d="M0 0 C8.79836437 5.29380579 12.78754723 12.2481738 15.4375 22 C15.4375 25.96 15.4375 29.92 15.4375 34 C1.2475 34 -12.9425 34 -27.5625 34 C-24.77652228 43.46336497 -24.77652228 43.46336497 -20.75 46.125 C-14.30168388 47.89512599 -10.07111217 47.14685222 -4.26171875 44.16796875 C-2.25790337 42.94554309 -2.25790337 42.94554309 -0.5625 40 C2.06447064 39.77862607 4.44643964 39.71837975 7.0625 39.8125 C7.76890625 39.82603516 8.4753125 39.83957031 9.203125 39.85351562 C10.94824128 39.8888896 12.69296608 39.94269779 14.4375 40 C12.02077222 48.40362162 9.19063858 53.43405686 1.5 57.9296875 C-7.52310051 62.61212981 -17.58742062 61.89794425 -27.05859375 58.9609375 C-35.11028229 55.8708979 -38.79007137 50.61717218 -42.5625 43 C-46.2836817 33.86619037 -45.33589825 23.92025658 -41.953125 14.83203125 C-38.10159646 6.98832846 -32.54836003 2.24848543 -24.5625 -1 C-17.17346766 -3.46301078 -7.10575376 -3.26776948 0 0 Z M-23.5625 13 C-24.88802355 14.85641127 -24.88802355 14.85641127 -25.8125 17 C-26.14765625 17.70125 -26.4828125 18.4025 -26.828125 19.125 C-27.68406397 20.97476174 -27.68406397 20.97476174 -27.5625 23 C-18.9825 23 -10.4025 23 -1.5625 23 C-2.60174918 16.76450491 -3.11190693 15.89426894 -7.5625 12 C-7.8925 11.67 -8.2225 11.34 -8.5625 11 C-10.32997729 10.87437765 -12.10310292 10.82423442 -13.875 10.8125 C-14.84050781 10.79832031 -15.80601562 10.78414062 -16.80078125 10.76953125 C-19.66600248 11.00863741 -21.21128638 11.36907064 -23.5625 13 Z " fill="#1F1F1F" transform="translate(362.5625,107)"/>
<path d="M0 0 C8.79836437 5.29380579 12.78754723 12.2481738 15.4375 22 C15.4375 25.96 15.4375 29.92 15.4375 34 C1.2475 34 -12.9425 34 -27.5625 34 C-24.77652228 43.46336497 -24.77652228 43.46336497 -20.75 46.125 C-14.20078728 47.9228231 -9.54247199 47.21998492 -3.5625 44 C-3.15902344 43.3090625 -2.75554687 42.618125 -2.33984375 41.90625 C-0.5625 40 -0.5625 40 3.01171875 39.609375 C4.38335748 39.6358801 5.75471938 39.6834691 7.125 39.75 C7.82689453 39.76804688 8.52878906 39.78609375 9.25195312 39.8046875 C10.98105436 39.85173787 12.70945205 39.92348127 14.4375 40 C12.02077222 48.40362162 9.19063858 53.43405686 1.5 57.9296875 C-7.2608249 62.47602466 -17.57916204 62.06001216 -26.8515625 59.23046875 C-34.4879245 55.76439666 -39.97713551 49.8294981 -42.94140625 42.04296875 C-46.05281386 31.80859026 -45.29942603 21.64682969 -40.5625 12 C-31.80261752 -0.96540129 -14.62770461 -6.72693823 0 0 Z M-25.5625 16 C-26.5525 19.465 -26.5525 19.465 -27.5625 23 C-18.9825 23 -10.4025 23 -1.5625 23 C-2.51215366 17.30207802 -2.85967507 15.92723856 -6.5625 12 C-13.38381837 8.58934082 -20.89886919 10.37972698 -25.5625 16 Z " fill="#1F1F1F" transform="translate(428.5625,107)"/>
<path d="M0 0 C1.12535156 0.00580078 1.12535156 0.00580078 2.2734375 0.01171875 C3.02367187 0.00785156 3.77390625 0.00398438 4.546875 0 C10.14682697 0.01010822 10.14682697 0.01010822 11.2734375 1.13671875 C11.34668918 3.99939442 11.36581955 6.83743775 11.3359375 9.69921875 C11.33142578 10.50552734 11.32691406 11.31183594 11.32226562 12.14257812 C11.31044268 14.14065631 11.29250664 16.13869658 11.2734375 18.13671875 C14.9034375 18.13671875 18.5334375 18.13671875 22.2734375 18.13671875 C22.2734375 22.09671875 22.2734375 26.05671875 22.2734375 30.13671875 C18.6434375 30.13671875 15.0134375 30.13671875 11.2734375 30.13671875 C11.39139675 34.81829776 11.51562299 39.49965163 11.64575195 44.1809082 C11.68915896 45.77461175 11.73082969 47.36836355 11.77075195 48.9621582 C11.82831557 51.24835783 11.89204899 53.53431324 11.95703125 55.8203125 C11.97374374 56.53698593 11.99045624 57.25365936 12.00767517 57.99205017 C11.82362404 61.35199257 11.82362404 61.35199257 13.2734375 64.13671875 C16.26233109 64.59437542 19.26313398 64.83992826 22.2734375 65.13671875 C22.2734375 69.75671875 22.2734375 74.37671875 22.2734375 79.13671875 C19.5853126 79.21836034 16.8997145 79.27751543 14.2109375 79.32421875 C13.45876953 79.34935547 12.70660156 79.37449219 11.93164062 79.40039062 C5.91678632 79.47850562 1.50024297 78.36210183 -3.5390625 74.88671875 C-7.7306691 68.70961428 -6.99450061 61.00760805 -6.9140625 53.88671875 C-6.91341797 52.81808594 -6.91277344 51.74945313 -6.91210938 50.6484375 C-6.87441645 43.75481991 -6.43840944 36.99322849 -5.7265625 30.13671875 C-9.0265625 30.13671875 -12.3265625 30.13671875 -15.7265625 30.13671875 C-15.7265625 26.17671875 -15.7265625 22.21671875 -15.7265625 18.13671875 C-12.4265625 18.13671875 -9.1265625 18.13671875 -5.7265625 18.13671875 C-5.85224609 16.31333984 -5.85224609 16.31333984 -5.98046875 14.453125 C-6.08360953 12.86850754 -6.18645911 11.2838711 -6.2890625 9.69921875 C-6.34513672 8.89677734 -6.40121094 8.09433594 -6.45898438 7.26757812 C-6.588192 5.22609764 -6.6616898 3.18125506 -6.7265625 1.13671875 C-4.90540247 -0.68444128 -2.41984486 0.00436795 0 0 Z " fill="#212121" transform="translate(561.7265625,87.86328125)"/>
<path d="M0 0 C1.58206057 0.00667536 3.16410534 0.0186375 4.74609375 0.03515625 C5.55240234 0.03966797 6.35871094 0.04417969 7.18945312 0.04882812 C9.18753131 0.06065107 11.18557158 0.07858711 13.18359375 0.09765625 C13.25335934 8.5475193 13.30653894 16.99726033 13.33903027 25.44734097 C13.35463101 29.37181775 13.37576582 33.29609627 13.40991211 37.22045898 C13.44270675 41.01357512 13.46048873 44.80650155 13.46822548 48.59974861 C13.47373317 50.04091436 13.48448763 51.4820707 13.50078392 52.92315483 C13.69189431 70.53686552 13.69189431 70.53686552 8.30859375 77.53515625 C3.54385704 81.03863913 -0.85729946 81.36625604 -6.62890625 81.22265625 C-7.32177734 81.21363281 -8.01464844 81.20460938 -8.72851562 81.1953125 C-10.4246302 81.17191782 -12.12056496 81.13605266 -13.81640625 81.09765625 C-13.81640625 76.47765625 -13.81640625 71.85765625 -13.81640625 67.09765625 C-9.36140625 66.60265625 -9.36140625 66.60265625 -4.81640625 66.09765625 C-4.81862686 65.28555191 -4.82084747 64.47344757 -4.82313538 63.63673401 C-4.84313696 55.99936677 -4.8583797 48.36201215 -4.86821842 40.72462559 C-4.87344656 36.79776967 -4.88054294 32.87093531 -4.8918457 28.9440918 C-4.90267705 25.15751368 -4.90868361 21.37095635 -4.91128349 17.58436394 C-4.9131373 16.13661306 -4.91675706 14.68886337 -4.92213631 13.24112129 C-4.92934992 11.2200849 -4.92981433 9.19902777 -4.92993164 7.17797852 C-4.93215225 6.02548111 -4.93437286 4.8729837 -4.93666077 3.68556213 C-4.7448502 -0.442247 -4.33304548 0.11087629 0 0 Z " fill="#242424" transform="translate(458.81640625,105.90234375)"/>
<path d="M0 0 C15.01601898 6.27662752 15.01601898 6.27662752 17.3671875 10.39453125 C17.72717893 12.60958059 17.87201095 14.76239837 18 17 C19.41666667 19.58333333 19.41666667 19.58333333 22 21 C22.65355469 21.03738281 23.30710937 21.07476562 23.98046875 21.11328125 C26.86930924 21.28730779 28.45368759 21.54615115 31 23 C34.49841745 27.827673 36.71308688 33.52885634 39 39 C32.54536193 41.98825836 25.30347846 42.09388265 18.43359375 40.34765625 C8.67721608 36.39420234 2.99903587 29.59787891 -1.25 20.25 C-2.87927475 13.1898094 -2.51277861 6.78051371 0 0 Z " fill="#1C1C1C" transform="translate(79,123)"/>
<path d="M0 0 C6.99533962 4.3512296 13.06576566 10.18702837 15.74609375 18.16015625 C16.25666591 21.04645195 16.29946787 23.83137889 16.31640625 26.76171875 C16.33058594 27.87417969 16.34476563 28.98664063 16.359375 30.1328125 C16.13138527 33.28989063 15.47331634 35.48129622 14.12890625 38.32421875 C11.83474052 37.20409083 9.54361531 36.07839034 7.25390625 34.94921875 C6.60292969 34.63210937 5.95195313 34.315 5.28125 33.98828125 C2.54713584 32.63531754 0.30118107 31.49649357 -1.87109375 29.32421875 C-2.17308916 27.87575926 -2.41661797 26.41462851 -2.62109375 24.94921875 C-3.37760204 21.2956942 -3.66569016 20.51051503 -6.55859375 17.88671875 C-9.79064682 16.16509356 -9.79064682 16.16509356 -13.30859375 15.82421875 C-19.10885586 13.38200312 -21.35345689 7.90281228 -23.87109375 2.32421875 C-23.87109375 1.33421875 -23.87109375 0.34421875 -23.87109375 -0.67578125 C-16.02924552 -4.06685075 -7.58632582 -3.86780476 0 0 Z " fill="#1A1A1A" transform="translate(119.87109375,107.67578125)"/>
<path d="M0 0 C1.12535156 0.00580078 1.12535156 0.00580078 2.2734375 0.01171875 C3.02367187 0.00785156 3.77390625 0.00398438 4.546875 0 C10.14682697 0.01010822 10.14682697 0.01010822 11.2734375 1.13671875 C11.3723669 3.30152672 11.4031485 5.4696566 11.3984375 7.63671875 C11.40230469 9.415625 11.40230469 9.415625 11.40625 11.23046875 C11.2734375 14.13671875 11.2734375 14.13671875 10.2734375 15.13671875 C7.41076183 15.20997043 4.5727185 15.2291008 1.7109375 15.19921875 C0.90462891 15.19470703 0.09832031 15.19019531 -0.73242188 15.18554688 C-2.73050006 15.17372393 -4.72854033 15.15578789 -6.7265625 15.13671875 C-6.75341662 12.82428083 -6.77289091 10.51175605 -6.7890625 8.19921875 C-6.80066406 6.91144531 -6.81226563 5.62367187 -6.82421875 4.296875 C-6.66063879 -0.99657257 -4.79342109 0.00865238 0 0 Z " fill="#393939" transform="translate(460.7265625,82.86328125)"/>
<path d="M0 0 C1.2065625 0.0309375 1.2065625 0.0309375 2.4375 0.0625 C3.5 1.875 3.5 1.875 4.4375 4.0625 C4.1075 5.0525 3.7775 6.0425 3.4375 7.0625 C1.5625 7.875 1.5625 7.875 -0.5625 8.0625 C-1.5525 7.4025 -2.5425 6.7425 -3.5625 6.0625 C-3.8125 3.5 -3.8125 3.5 -3.5625 1.0625 C-2.5625 0.0625 -2.5625 0.0625 0 0 Z " fill="#333333" transform="translate(106.5625,130.9375)"/>
</svg>
